<?xml version="1.0" encoding="utf-8"?>
<!-- Generator: Adobe Illustrator 25.4.1, SVG Export Plug-In . SVG Version: 6.00 Build 0)  -->
<svg version="1.1" id="Layer_1" xmlns="http://www.w3.org/2000/svg" xmlns:xlink="http://www.w3.org/1999/xlink" x="0px" y="0px"
	 viewBox="0 0 186 103" style="enable-background:new 0 0 186 103;" xml:space="preserve">
<style type="text/css">
	.st0{fill:#E3E3E3;}
	.st1{fill:#FFFFFF;}
	.st2{fill:#FFFFFF;filter:url(#Adobe_OpacityMaskFilter);}
	.st3{mask:url(#mask0_00000004544493451688351210000015193814923362146181_);}
	.st4{fill-rule:evenodd;clip-rule:evenodd;fill:#E4E4E4;}
	.st5{fill:#FFFFFF;filter:url(#Adobe_OpacityMaskFilter_00000176028278751115243810000018317231104980715196_);}
	.st6{mask:url(#mask1_00000026866401268804283880000009100380955998905533_);}
	.st7{fill:#E4E4E4;}
	.st8{fill-rule:evenodd;clip-rule:evenodd;fill:#FFFFFF;}
	.st9{fill:#FFFFFF;filter:url(#Adobe_OpacityMaskFilter_00000057114951676287629230000008130320746174419629_);}
	.st10{mask:url(#mask2_00000090283968685959806710000005009715652700940974_);}
	.st11{fill:#F1F1F1;}
	.st12{fill:#FFFFFF;filter:url(#Adobe_OpacityMaskFilter_00000085248170078948913280000000339121143980745632_);}
	.st13{mask:url(#mask3_00000165219253747223511800000006729327107801416332_);}
	.st14{fill:#FFFFFF;filter:url(#Adobe_OpacityMaskFilter_00000140720272834644751910000010287158101659675286_);}
	.st15{mask:url(#mask4_00000047031513971525447070000009060739001006622865_);}
	.st16{fill:#FFFFFF;filter:url(#Adobe_OpacityMaskFilter_00000094588833161439649950000003787359071864743089_);}
	.st17{mask:url(#mask5_00000049944266357311680720000012320829634902950324_);}
</style>
<path class="st0" d="M65.7,14.4H121c0.7,0,1.3,0.6,1.3,1.3v52.2c0,0.7-0.6,1.3-1.3,1.3H65.7c-0.7,0-1.3-0.6-1.3-1.3V15.7
	C64.4,15,65,14.4,65.7,14.4z"/>
<path class="st1" d="M69.3,27.5h48.4c0.7,0,1.3,0.6,1.3,1.3v9.9c0,0.7-0.6,1.3-1.3,1.3H69.3c-0.7,0-1.3-0.6-1.3-1.3v-9.9
	C68,28.1,68.6,27.5,69.3,27.5z"/>
<defs>
	<filter id="Adobe_OpacityMaskFilter" filterUnits="userSpaceOnUse" x="70.7" y="31.9" width="10.4" height="3.8">
		<feColorMatrix  type="matrix" values="1 0 0 0 0  0 1 0 0 0  0 0 1 0 0  0 0 0 1 0"/>
	</filter>
</defs>
<mask maskUnits="userSpaceOnUse" x="70.7" y="31.9" width="10.4" height="3.8" id="mask0_00000004544493451688351210000015193814923362146181_">
	<path class="st2" d="M69.3,27.5h48.4c0.7,0,1.3,0.6,1.3,1.3v9.9c0,0.7-0.6,1.3-1.3,1.3H69.3c-0.7,0-1.3-0.6-1.3-1.3v-9.9
		C68,28.1,68.6,27.5,69.3,27.5z"/>
</mask>
<g class="st3">
	<path class="st4" d="M70.7,32.6c0-0.4,0.3-0.7,0.7-0.7h9.1c0.4,0,0.7,0.3,0.7,0.7v2.5c0,0.4-0.3,0.7-0.7,0.7h-9.1
		c-0.4,0-0.7-0.3-0.7-0.7V32.6z"/>
</g>
<path class="st1" d="M69.3,43h48.4c0.7,0,1.3,0.6,1.3,1.3v20.2c0,0.7-0.6,1.3-1.3,1.3H69.3c-0.7,0-1.3-0.6-1.3-1.3V44.3
	C68,43.6,68.6,43,69.3,43z"/>
<defs>
	
		<filter id="Adobe_OpacityMaskFilter_00000094615129272858880850000001221113713051419265_" filterUnits="userSpaceOnUse" x="70.7" y="47.4" width="38.6" height="10.5">
		<feColorMatrix  type="matrix" values="1 0 0 0 0  0 1 0 0 0  0 0 1 0 0  0 0 0 1 0"/>
	</filter>
</defs>
<mask maskUnits="userSpaceOnUse" x="70.7" y="47.4" width="38.6" height="10.5" id="mask1_00000026866401268804283880000009100380955998905533_">
	<path style="fill:#FFFFFF;filter:url(#Adobe_OpacityMaskFilter_00000094615129272858880850000001221113713051419265_);" d="
		M69.3,43h48.4c0.7,0,1.3,0.6,1.3,1.3v20.2c0,0.7-0.6,1.3-1.3,1.3H69.3c-0.7,0-1.3-0.6-1.3-1.3V44.3C68,43.6,68.6,43,69.3,43z"/>
</mask>
<g class="st6">
	<path class="st7" d="M71.3,47.4h37.3c0.4,0,0.7,0.3,0.7,0.7v2.5c0,0.4-0.3,0.7-0.7,0.7H71.3c-0.4,0-0.7-0.3-0.7-0.7v-2.5
		C70.7,47.7,70.9,47.4,71.3,47.4z"/>
	<path class="st7" d="M71.3,54.1h12.9c0.4,0,0.7,0.3,0.7,0.7v2.5c0,0.4-0.3,0.7-0.7,0.7H71.3c-0.4,0-0.7-0.3-0.7-0.7v-2.5
		C70.7,54.4,70.9,54.1,71.3,54.1z"/>
</g>
<path class="st8" d="M68.3,20c0-0.4,0.3-0.7,0.7-0.7h21.8c0.4,0,0.7,0.3,0.7,0.7v3.1c0,0.4-0.3,0.7-0.7,0.7H68.9
	c-0.4,0-0.7-0.3-0.7-0.7V20z"/>
<path class="st0" d="M129.2,14.4h55.2c0.7,0,1.3,0.6,1.3,1.3v81.6c0,0.7-0.6,1.3-1.3,1.3h-55.2c-0.7,0-1.3-0.6-1.3-1.3V15.7
	C127.9,15,128.5,14.4,129.2,14.4z"/>
<path class="st1" d="M132.8,27.8h48.4c0.7,0,1.3,0.6,1.3,1.3v32.8c0,0.7-0.6,1.3-1.3,1.3h-48.4c-0.7,0-1.3-0.6-1.3-1.3V29.1
	C131.5,28.4,132.1,27.8,132.8,27.8z"/>
<defs>
	
		<filter id="Adobe_OpacityMaskFilter_00000089543227232453030670000001358869893406791597_" filterUnits="userSpaceOnUse" x="131.5" y="26.7" width="55.4" height="33.6">
		<feColorMatrix  type="matrix" values="1 0 0 0 0  0 1 0 0 0  0 0 1 0 0  0 0 0 1 0"/>
	</filter>
</defs>
<mask maskUnits="userSpaceOnUse" x="131.5" y="26.7" width="55.4" height="33.6" id="mask2_00000090283968685959806710000005009715652700940974_">
	<path style="fill:#FFFFFF;filter:url(#Adobe_OpacityMaskFilter_00000089543227232453030670000001358869893406791597_);" d="
		M132.8,27.8h48.4c0.7,0,1.3,0.6,1.3,1.3v32.8c0,0.7-0.6,1.3-1.3,1.3h-48.4c-0.7,0-1.3-0.6-1.3-1.3V29.1
		C131.5,28.4,132.1,27.8,132.8,27.8z"/>
</mask>
<g class="st10">
	<rect x="131.5" y="26.7" class="st11" width="55.4" height="27.1"/>
	<path class="st4" d="M134.2,57.1c0-0.4,0.3-0.7,0.7-0.7h10.9c0.4,0,0.7,0.3,0.7,0.7v2.5c0,0.4-0.3,0.7-0.7,0.7h-10.9
		c-0.4,0-0.7-0.3-0.7-0.7V57.1z"/>
</g>
<path class="st1" d="M132.5,67h48.4c0.7,0,1.3,0.6,1.3,1.3v8.8c0,0.7-0.6,1.3-1.3,1.3h-48.4c-0.7,0-1.3-0.6-1.3-1.3v-8.8
	C131.2,67.6,131.8,67,132.5,67z"/>
<defs>
	<filter id="Adobe_OpacityMaskFilter_00000143589804895088157050000018394274674854660274_" filterUnits="userSpaceOnUse">
		<feColorMatrix  type="matrix" values="1 0 0 0 0  0 1 0 0 0  0 0 1 0 0  0 0 0 1 0"/>
	</filter>
</defs>
<mask maskUnits="userSpaceOnUse" id="mask3_00000165219253747223511800000006729327107801416332_">
	<path style="fill:#FFFFFF;filter:url(#Adobe_OpacityMaskFilter_00000143589804895088157050000018394274674854660274_);" d="
		M132.5,67h48.4c0.7,0,1.3,0.6,1.3,1.3v8.8c0,0.7-0.6,1.3-1.3,1.3h-48.4c-0.7,0-1.3-0.6-1.3-1.3v-8.8C131.2,67.6,131.8,67,132.5,67z
		"/>
</mask>
<g class="st13">
</g>
<path class="st7" d="M134.5,70.8h18c0.4,0,0.7,0.3,0.7,0.7V74c0,0.4-0.3,0.7-0.7,0.7h-18c-0.4,0-0.7-0.3-0.7-0.7v-2.5
	C133.9,71.1,134.2,70.8,134.5,70.8z"/>
<path class="st1" d="M132.5,81.9h48.4c0.7,0,1.3,0.6,1.3,1.3V92c0,0.7-0.6,1.3-1.3,1.3h-48.4c-0.7,0-1.3-0.6-1.3-1.3v-8.8
	C131.2,82.5,131.8,81.9,132.5,81.9z"/>
<defs>
	<filter id="Adobe_OpacityMaskFilter_00000105419913487167186760000015763171123974653599_" filterUnits="userSpaceOnUse">
		<feColorMatrix  type="matrix" values="1 0 0 0 0  0 1 0 0 0  0 0 1 0 0  0 0 0 1 0"/>
	</filter>
</defs>
<mask maskUnits="userSpaceOnUse" id="mask4_00000047031513971525447070000009060739001006622865_">
	<path style="fill:#FFFFFF;filter:url(#Adobe_OpacityMaskFilter_00000105419913487167186760000015763171123974653599_);" d="
		M132.5,81.9h48.4c0.7,0,1.3,0.6,1.3,1.3V92c0,0.7-0.6,1.3-1.3,1.3h-48.4c-0.7,0-1.3-0.6-1.3-1.3v-8.8
		C131.2,82.5,131.8,81.9,132.5,81.9z"/>
</mask>
<g class="st15">
</g>
<path class="st7" d="M134.5,85.7h12c0.4,0,0.7,0.3,0.7,0.7v2.5c0,0.4-0.3,0.7-0.7,0.7h-12c-0.4,0-0.7-0.3-0.7-0.7v-2.5
	C133.9,86,134.2,85.7,134.5,85.7z"/>
<path class="st8" d="M131.8,20c0-0.4,0.3-0.7,0.7-0.7h13.8c0.4,0,0.7,0.3,0.7,0.7v3.1c0,0.4-0.3,0.7-0.7,0.7h-13.8
	c-0.4,0-0.7-0.3-0.7-0.7V20z"/>
<path class="st0" d="M2.2,14.4h55.2c0.7,0,1.3,0.6,1.3,1.3V99c0,0.7-0.6,1.3-1.3,1.3H2.2c-0.7,0-1.3-0.6-1.3-1.3V15.7
	C0.9,15,1.5,14.4,2.2,14.4z"/>
<path class="st1" d="M5.8,27.8h48.4c0.7,0,1.3,0.6,1.3,1.3v9.7c0,0.7-0.6,1.3-1.3,1.3H5.8c-0.7,0-1.3-0.6-1.3-1.3v-9.7
	C4.5,28.4,5.1,27.8,5.8,27.8z"/>
<path class="st7" d="M7.8,31.9h24.5c0.4,0,0.7,0.3,0.7,0.7v2.5c0,0.4-0.3,0.7-0.7,0.7H7.8c-0.4,0-0.7-0.3-0.7-0.7v-2.5
	C7.1,32.2,7.4,31.9,7.8,31.9z"/>
<path class="st1" d="M5.8,43.9h48.4c0.7,0,1.3,0.6,1.3,1.3v9.7c0,0.7-0.6,1.3-1.3,1.3H5.8c-0.7,0-1.3-0.6-1.3-1.3v-9.7
	C4.5,44.5,5.1,43.9,5.8,43.9z"/>
<path class="st7" d="M7.8,48h18.3c0.4,0,0.7,0.3,0.7,0.7v2.5c0,0.4-0.3,0.7-0.7,0.7H7.8c-0.4,0-0.7-0.3-0.7-0.7v-2.5
	C7.1,48.3,7.4,48,7.8,48z"/>
<path class="st7" d="M7.5,87.8h12c0.4,0,0.7,0.3,0.7,0.7v2.5c0,0.4-0.3,0.7-0.7,0.7h-12c-0.4,0-0.7-0.3-0.7-0.7v-2.5
	C6.8,88.1,7.1,87.8,7.5,87.8z"/>
<path class="st1" d="M5.7,59.7h48.4c0.7,0,1.3,0.6,1.3,1.3v32.8c0,0.7-0.6,1.3-1.3,1.3H5.7c-0.7,0-1.3-0.6-1.3-1.3V61
	C4.4,60.3,5,59.7,5.7,59.7z"/>
<defs>
	
		<filter id="Adobe_OpacityMaskFilter_00000127011499689444801410000012390050599184963260_" filterUnits="userSpaceOnUse" x="4.4" y="58.6" width="55.4" height="33.6">
		<feColorMatrix  type="matrix" values="1 0 0 0 0  0 1 0 0 0  0 0 1 0 0  0 0 0 1 0"/>
	</filter>
</defs>
<mask maskUnits="userSpaceOnUse" x="4.4" y="58.6" width="55.4" height="33.6" id="mask5_00000049944266357311680720000012320829634902950324_">
	<path style="fill:#FFFFFF;filter:url(#Adobe_OpacityMaskFilter_00000127011499689444801410000012390050599184963260_);" d="
		M5.7,59.7h48.4c0.7,0,1.3,0.6,1.3,1.3v32.8c0,0.7-0.6,1.3-1.3,1.3H5.7c-0.7,0-1.3-0.6-1.3-1.3V61C4.4,60.3,5,59.7,5.7,59.7z"/>
</mask>
<g class="st17">
	<rect x="4.4" y="58.6" class="st11" width="55.4" height="27.1"/>
	<path class="st7" d="M7.7,88.3h10.9c0.4,0,0.7,0.3,0.7,0.7v2.5c0,0.4-0.3,0.7-0.7,0.7H7.7c-0.4,0-0.7-0.3-0.7-0.7V89
		C7.1,88.6,7.4,88.3,7.7,88.3z"/>
</g>
<path class="st1" d="M5.4,19.3h12.9c0.4,0,0.7,0.3,0.7,0.7v3.1c0,0.4-0.3,0.7-0.7,0.7H5.4c-0.4,0-0.7-0.3-0.7-0.7V20
	C4.8,19.6,5.1,19.3,5.4,19.3z"/>
<path class="st8" d="M97.8,0.1c0.8,0,1.4,0.6,1.4,1.4v8.1c0,0.7-0.6,1.4-1.4,1.4h-8.2c-0.8,0-1.4-0.6-1.4-1.4V1.5
	c0-0.7,0.6-1.4,1.4-1.4H97.8z M92.3,1.5c0.4,0,0.7,0.3,0.7,0.7v3.5c0,0.4-0.3,0.7-0.7,0.7h-2c-0.4,0-0.7-0.3-0.7-0.7V2.2
	c0-0.4,0.3-0.7,0.7-0.7H92.3z M94.5,6.3h-2 M92.3,5h2 M97.1,1.5c0.4,0,0.7,0.3,0.7,0.7v6.2c0,0.4-0.3,0.7-0.7,0.7h-2
	c-0.4,0-0.7-0.3-0.7-0.7V2.2c0-0.4,0.3-0.7,0.7-0.7H97.1z"/>
</svg>
