<svg xmlns="http://www.w3.org/2000/svg" xmlns:xlink="http://www.w3.org/1999/xlink" viewBox="0 0 183.42 136.66"><defs><style>.cls-1{fill:url(#linear-gradient);}.cls-2{fill:url(#linear-gradient-2);}.cls-3{fill:url(#linear-gradient-3);}.cls-4{opacity:0.5;}.cls-5{fill:#4c9aff;}.cls-6{opacity:0.1;}.cls-7{fill:#b2d4ff;}.cls-8{fill:url(#linear-gradient-4);}.cls-9{opacity:0.4;}.cls-10{fill:#eae6ff;}.cls-11{fill:#fcc6eb;opacity:0.6;}</style><linearGradient id="linear-gradient" x1="124.53" y1="110.81" x2="182.34" y2="110.81" gradientUnits="userSpaceOnUse"><stop offset="0" stop-color="#dfe1e5"/><stop offset="1" stop-color="#f4f5f7"/></linearGradient><linearGradient id="linear-gradient-2" x1="9.16" y1="28.95" x2="66.97" y2="28.95" xlink:href="#linear-gradient"/><linearGradient id="linear-gradient-3" x1="50.77" y1="134.33" x2="111.3" y2="29.49" gradientUnits="userSpaceOnUse"><stop offset="0" stop-color="#b3f5ff"/><stop offset="0.37" stop-color="#7bc8ff"/><stop offset="0.79" stop-color="#3e97ff"/><stop offset="1" stop-color="#2684ff"/></linearGradient><linearGradient id="linear-gradient-4" x1="82.38" y1="89.27" x2="157.23" y2="14.42" gradientUnits="userSpaceOnUse"><stop offset="0" stop-color="#998dd9"/><stop offset="1" stop-color="#f99cdb"/></linearGradient></defs><g id="Layer_2" data-name="Layer 2"><g id="Layer_1-2" data-name="Layer 1"><path class="cls-1" d="M125,121.56l15.23,14.74a1.25,1.25,0,0,0,2.12-.91l-.15-9a41.11,41.11,0,0,0,9.43-1.24,40.86,40.86,0,0,0,30.71-38.94A1.25,1.25,0,0,0,181.07,85l-10,.16a1.25,1.25,0,0,0-1.23,1.22A28.35,28.35,0,0,1,142,114l-.15-9a1.24,1.24,0,0,0-2.14-.84L125,119.36A1.56,1.56,0,0,0,125,121.56Z"/><path class="cls-2" d="M66.5,18.19,51.27,3.45a1.25,1.25,0,0,0-2.11.92l.14,9a41,41,0,0,0-9.42,1.25A40.86,40.86,0,0,0,9.16,53.53a1.24,1.24,0,0,0,1.27,1.26l10-.16a1.25,1.25,0,0,0,1.22-1.21A28.35,28.35,0,0,1,49.51,25.8l.14,9a1.25,1.25,0,0,0,2.15.85L66.54,20.39A1.56,1.56,0,0,0,66.5,18.19Z"/><rect class="cls-3" x="32.26" y="58.65" width="86.34" height="65.92" rx="2.19"/><g class="cls-4"><path class="cls-5" d="M41.84,69.08l-.15,45a1.87,1.87,0,0,0,1.66,2l16.43,0a1.87,1.87,0,0,0,1.67-2l.15-45a1.89,1.89,0,0,0-1.66-2l-16.43,0A1.87,1.87,0,0,0,41.84,69.08Z"/><path class="cls-5" d="M65.76,69.16l-.1,30a1.87,1.87,0,0,0,1.66,2l16.22,0a1.86,1.86,0,0,0,1.67-2l.1-30a1.88,1.88,0,0,0-1.66-2l-16.22-.05A1.87,1.87,0,0,0,65.76,69.16Z"/><path class="cls-5" d="M89.47,69.23l0,36.78a1.89,1.89,0,0,0,1.66,2l16.43,0a1.87,1.87,0,0,0,1.67-2l0-36.77a1.88,1.88,0,0,0-1.66-2L91.14,67.2A1.88,1.88,0,0,0,89.47,69.23Z"/></g><g class="cls-6"><path class="cls-7" d="M116.67,58.65H70.6V87.94a1.93,1.93,0,0,0,1.93,1.93H118.6V60.58A1.92,1.92,0,0,0,116.67,58.65Z"/></g><rect class="cls-8" x="76.63" y="18.89" width="86.34" height="65.92" rx="2.19"/><g class="cls-9"><path class="cls-10" d="M115.54,28.11,87.2,28a3,3,0,0,0-3,2.95l0,15.9a3,3,0,0,0,2.95,3l28.34.09a3,3,0,0,0,3-3l0-15.89A3,3,0,0,0,115.54,28.11Zm-8.4,15.18a7.73,7.73,0,0,1-11.92,1.13A7.76,7.76,0,0,1,93.57,36a7.75,7.75,0,0,1,6.69-4.74.45.45,0,0,1,.48.45l0,6.83a.44.44,0,0,0,.44.45L108,39a.45.45,0,0,1,.45.48A7.83,7.83,0,0,1,107.14,43.29Zm2.12-5.55-6.83,0a.45.45,0,0,1-.45-.45l0-6.83a.44.44,0,0,1,.48-.44,7.72,7.72,0,0,1,5,2.27,7.73,7.73,0,0,1,2.24,5A.46.46,0,0,1,109.26,37.74Z"/><path class="cls-10" d="M152.44,53.14l-28.34-.09a3,3,0,0,0-3,3l0,15.9a3,3,0,0,0,3,3l28.34.09a3,3,0,0,0,3-2.95l0-15.89A3,3,0,0,0,152.44,53.14ZM129.42,71a.62.62,0,0,1-.64.59H125.5a.62.62,0,0,1-.64-.59V68a.61.61,0,0,1,.64-.58h3.28a.62.62,0,0,1,.64.59Zm0-5.38a.62.62,0,0,1-.65.59h-3.27a.62.62,0,0,1-.64-.59v-3a.62.62,0,0,1,.64-.59h3.28a.62.62,0,0,1,.64.59Zm0-5.37a.61.61,0,0,1-.64.58h-3.27a.62.62,0,0,1-.64-.59v-3a.62.62,0,0,1,.64-.59h3.28a.61.61,0,0,1,.63.59Zm8.76,10.78a.62.62,0,0,1-.64.59l-6.39,0a.62.62,0,0,1-.64-.59V68a.61.61,0,0,1,.64-.58l6.39,0a.61.61,0,0,1,.64.59Zm0-5.38a.62.62,0,0,1-.64.59l-6.4,0a.61.61,0,0,1-.63-.59v-3a.62.62,0,0,1,.65-.58l6.39,0a.62.62,0,0,1,.64.59Zm0-5.38a.63.63,0,0,1-.65.59l-6.39,0a.62.62,0,0,1-.64-.59v-3a.62.62,0,0,1,.64-.59l6.4,0a.62.62,0,0,1,.64.59ZM151.8,71.1a.61.61,0,0,1-.64.58l-11.19,0a.61.61,0,0,1-.64-.59V68a.61.61,0,0,1,.64-.58l11.19,0a.62.62,0,0,1,.64.59Zm0-5.38a.62.62,0,0,1-.65.58l-11.19,0a.61.61,0,0,1-.63-.59v-3a.61.61,0,0,1,.64-.58l11.19,0a.62.62,0,0,1,.64.59Zm0-5.38a.6.6,0,0,1-.64.58l-11.19,0a.62.62,0,0,1-.64-.59v-3a.62.62,0,0,1,.65-.58l11.19,0a.62.62,0,0,1,.63.59Z"/><path class="cls-10" d="M115.46,53l-28.34-.09a3,3,0,0,0-3,3l-.05,15.9a3,3,0,0,0,3,3l28.34.09a3,3,0,0,0,3-3l0-15.9A3,3,0,0,0,115.46,53ZM88.3,65.4V62.28a.64.64,0,0,1,.64-.63l12.87,0a.64.64,0,0,1,.64.64v3.12a.63.63,0,0,1-.64.63L88.94,66A.64.64,0,0,1,88.3,65.4Zm18.13,5.82a.64.64,0,0,1-.64.63l-6.56,0a.64.64,0,0,1-.64-.64V67.91a.64.64,0,0,1,.65-.63l6.55,0a.64.64,0,0,1,.64.64Zm7.79-11.33a.64.64,0,0,1-.64.64l-19.11-.06a.64.64,0,0,1-.63-.65V56.55a.63.63,0,0,1,.64-.64l19.1.06a.64.64,0,0,1,.64.64Z"/><path class="cls-10" d="M152.52,28.24l-28.34-.1a3,3,0,0,0-3,3l0,15.89a3,3,0,0,0,3,3l28.34.09a3,3,0,0,0,3-2.95l.05-15.89A3,3,0,0,0,152.52,28.24Zm-9.71,12.4h0a36.39,36.39,0,0,0-3.64,5.81.72.72,0,0,1-1.29,0,55.84,55.84,0,0,0-3.81-5.83,5.81,5.81,0,0,1-1.5-3.94,5.88,5.88,0,1,1,10.24,4Z"/><path class="cls-10" d="M138.45,34.94a1.77,1.77,0,1,0,1.75,1.77A1.76,1.76,0,0,0,138.45,34.94Z"/></g><path class="cls-11" d="M183.42,33.86h0A9.85,9.85,0,0,1,176,26.41h0a9.85,9.85,0,0,1-7.45,7.45h0A9.86,9.86,0,0,1,176,41.32h0a9.86,9.86,0,0,1,7.46-7.46Z"/><path class="cls-11" d="M22.74,107.69h0a9.87,9.87,0,0,1-7.46-7.46h0a9.85,9.85,0,0,1-7.45,7.46h0a9.83,9.83,0,0,1,7.45,7.45h0a9.86,9.86,0,0,1,7.46-7.45Z"/><path class="cls-11" d="M176,3.12h0A4.11,4.11,0,0,1,172.84,0h0a4.11,4.11,0,0,1-3.12,3.12h0a4.11,4.11,0,0,1,3.12,3.12h0A4.11,4.11,0,0,1,176,3.12Z"/><path class="cls-11" d="M6.24,118.26h0a4.11,4.11,0,0,1-3.12-3.12h0A4.11,4.11,0,0,1,0,118.26H0a4.13,4.13,0,0,1,3.12,3.12h0a4.13,4.13,0,0,1,3.12-3.12Z"/></g></g></svg>